<?xml version="1.0" standalone="no"?>
<!DOCTYPE svg PUBLIC "-//W3C//DTD SVG 20010904//EN"
 "http://www.w3.org/TR/2001/REC-SVG-20010904/DTD/svg10.dtd">
<svg version="1.0" xmlns="http://www.w3.org/2000/svg"
 width="512.000000pt" height="512.000000pt" viewBox="0 0 512.000000 512.000000"
 preserveAspectRatio="xMidYMid meet">

<g transform="translate(0.000000,512.000000) scale(0.100000,-0.100000)"
fill="#000000" stroke="none">
<path d="M2321 5110 c-1340 -130 -2361 -1283 -2318 -2620 13 -389 97 -726 268
-1069 249 -502 647 -900 1150 -1150 815 -406 1779 -350 2539 147 297 194 579
482 771 788 74 116 184 342 234 478 51 138 110 376 131 531 23 157 26 521 6
660 -59 415 -191 769 -410 1099 -92 140 -185 254 -315 385 -399 403 -895 653
-1462 737 -122 18 -466 26 -594 14z m1049 -1225 c85 -22 209 -88 271 -144 l56
-50 89 24 c97 26 212 71 282 110 25 14 47 23 50 21 8 -9 -48 -119 -93 -182
-41 -56 -83 -99 -165 -163 l-25 -19 70 13 c95 18 179 40 244 65 29 12 55 19
58 17 14 -15 -229 -275 -301 -322 -25 -17 -26 -21 -26 -107 0 -446 -174 -916
-471 -1273 -439 -526 -1152 -766 -1854 -624 -193 39 -478 149 -599 231 l-37
25 178 6 c144 4 197 10 279 31 175 44 314 105 454 200 l75 51 -60 7 c-245 32
-449 183 -548 408 l-25 56 112 -1 c61 0 128 4 150 8 l39 8 -80 28 c-246 85
-427 313 -452 569 -6 64 -5 73 8 68 9 -3 50 -17 91 -32 41 -14 102 -29 135
-31 l60 -6 -52 42 c-226 182 -307 534 -183 799 l30 64 102 -107 c240 -251 523
-426 848 -524 91 -27 243 -59 320 -66 36 -3 79 -8 96 -11 l31 -4 -4 112 c-6
141 12 233 66 343 103 207 288 340 526 379 50 7 196 -3 255 -19z"/>
</g>
</svg>
